<?xml version="1.0" encoding="UTF-8" standalone="no"?>
<svg
   xmlns:dc="http://purl.org/dc/elements/1.1/"
   xmlns:cc="http://creativecommons.org/ns#"
   xmlns:rdf="http://www.w3.org/1999/02/22-rdf-syntax-ns#"
   xmlns:svg="http://www.w3.org/2000/svg"
   xmlns="http://www.w3.org/2000/svg"
   xmlns:sodipodi="http://sodipodi.sourceforge.net/DTD/sodipodi-0.dtd"
   xmlns:inkscape="http://www.inkscape.org/namespaces/inkscape"
   version="1.0"
   width="900.000000pt"
   height="460.000000pt"
   viewBox="0 0 900.000000 460.000000"
   preserveAspectRatio="xMidYMid meet"
   id="svg6"
   sodipodi:docname="skyline.svg"
   inkscape:version="1.0.1 (3bc2e813f5, 2020-09-07)">
  <metadata
     id="metadata12">
    <rdf:RDF>
      <cc:Work
         rdf:about="">
        <dc:format>image/svg+xml</dc:format>
        <dc:type
           rdf:resource="http://purl.org/dc/dcmitype/StillImage" />
      </cc:Work>
    </rdf:RDF>
  </metadata>
  <defs
     id="defs10" />
  <sodipodi:namedview
     pagecolor="#ffffff"
     bordercolor="#666666"
     borderopacity="1"
     objecttolerance="10"
     gridtolerance="10"
     guidetolerance="10"
     inkscape:pageopacity="0"
     inkscape:pageshadow="2"
     inkscape:window-width="2560"
     inkscape:window-height="1377"
     id="namedview8"
     showgrid="false"
     inkscape:zoom="0.86833333"
     inkscape:cx="600"
     inkscape:cy="306.66667"
     inkscape:window-x="2552"
     inkscape:window-y="-8"
     inkscape:window-maximized="1"
     inkscape:current-layer="svg6" />
  <g
     transform="translate(0.000000,460.000000) scale(0.100000,-0.100000)">
    <path
       d="M2400 3026 l0 -134 -26 -6 c-45 -12 -63 -44 -64 -112 0 -72 -7 -77 -88 -61 -34 7 -61 8 -79 1 l-28 -9 -5 -200 c-5 -194 -13 -245 -40 -245 -6 0 -10 -11 -10 -25 0 -14 -4 -25 -10 -25 -5 0 -10 22 -10 50 0 96 -23 305 -34 312 -15 11 -68 10 -85 -1 -11 -7 -15 -49 -19 -185 -3 -97 -9 -179 -13 -182 -5 -3 -9 -21 -9 -40 0 -30 -3 -34 -25 -34 l-25 0 0 -125 0 -125 -40 0 c-33 0 -40 3 -40 20 0 11 -6 38 -12 60 -12 36 -16 40 -45 40 l-33 0 0 120 c0 116 -1 120 -24 135 -19 13 -29 14 -45 5 -20 -10 -21 -18 -21 -245 0 -143 -4 -236 -10 -240 -5 -3 -26 1 -45 11 l-35 16 0 304 c0 300 0 303 -21 315 -12 6 -43 9 -70 7 -43 -5 -48 -3 -53 19 -5 16 -13 23 -31 23 -14 0 -25 6 -25 13 0 10 -20 14 -79 15 -74 1 -79 0 -90 -24 -6 -13 -21 -29 -33 -34 -58 -24 -58 -23 -58 -213 l0 -176 -35 -7 c-46 -8 -65 0 -65 29 0 12 -9 48 -20 80 -11 31 -20 72 -20 91 0 19 -4 37 -9 40 -5 3 -12 23 -16 43 l-8 38 -9 -40 c-5 -22 -14 -67 -19 -100 -6 -32 -18 -64 -26 -70 -8 -6 -15 -29 -16 -53 -2 -41 -3 -42 -42 -46 -22 -3 -66 -7 -97 -9 -55 -3 -58 -2 -58 20 0 31 -66 103 -95 103 -25 0 -55 -50 -55 -91 0 -12 -7 -30 -15 -39 -16 -17 -23 -60 -24 -133 -1 -44 -20 -56 -57 -37 -23 13 -24 16 -24 137 0 75 -4 123 -10 123 -5 0 -10 9 -10 20 0 10 -18 53 -40 95 -22 42 -40 83 -40 91 0 8 -4 12 -10 9 -5 -3 -10 -14 -10 -24 0 -25 -39 -73 -40 -49 0 9 -14 26 -30 38 -26 18 -33 20 -46 9 -10 -8 -18 -9 -22 -3 -4 6 -17 10 -29 10 l-23 0 0 -393 0 -393 4500 0 4500 0 0 344 c0 189 -3 352 -6 360 -5 12 -10 14 -19 6 -10 -8 -12 -32 -8 -89 5 -73 4 -79 -15 -85 -22 -7 -33 -45 -32 -109 1 -29 -7 -47 -30 -74 -17 -19 -29 -41 -26 -49 3 -7 1 -16 -4 -19 -6 -4 -10 58 -10 164 0 145 -2 171 -15 171 -8 0 -15 5 -15 11 0 8 -4 8 -13 0 -8 -6 -17 -7 -23 -2 -14 15 -193 18 -202 4 -4 -6 -21 -13 -37 -15 -29 -3 -30 -6 -38 -63 -4 -33 -6 -142 -3 -242 4 -171 3 -184 -14 -193 -10 -5 -28 -10 -39 -10 -18 0 -21 6 -21 45 0 57 -18 59 -23 3 -2 -24 -4 -4 -5 45 l-2 87 -70 0 -70 0 0 425 0 425 -27 6 c-26 7 -86 -9 -110 -28 -7 -6 -13 -21 -13 -34 0 -13 -4 -24 -10 -24 -5 0 -10 19 -10 43 0 24 -3 47 -7 51 -4 4 -6 46 -4 94 2 66 -1 92 -13 107 -12 15 -15 47 -16 128 0 64 -4 107 -10 107 -6 0 -10 -41 -10 -102 0 -86 -3 -108 -20 -133 -16 -24 -18 -40 -14 -81 4 -29 3 -82 0 -118 l-7 -65 -52 -3 -52 -3 -5 -175 -5 -175 -27 -3 -28 -3 0 -321 c0 -177 -3 -319 -6 -315 -6 6 -9 71 -12 315 l-2 122 -29 0 c-16 0 -31 -6 -35 -15 -6 -17 -46 -21 -46 -5 0 6 -13 10 -30 10 -23 0 -30 -4 -30 -20 0 -13 -7 -20 -20 -20 -11 0 -20 6 -20 14 0 15 -49 26 -117 26 l-43 0 0 -175 0 -175 -25 0 c-21 0 -25 5 -25 31 0 22 -5 32 -20 36 -17 4 -20 14 -20 54 l0 49 -40 0 -40 0 0 64 c0 43 -5 67 -14 76 -8 6 -16 28 -18 48 -3 34 -6 37 -37 40 -38 4 -51 -9 -51 -50 0 -21 -5 -28 -20 -28 -19 0 -20 -7 -20 -195 l0 -195 -25 0 -25 0 0 415 0 414 -40 23 -40 23 -2 100 -2 100 -3 -98 c-3 -81 -7 -99 -21 -104 -9 -4 -21 -12 -25 -20 -4 -7 -25 -13 -46 -13 -37 0 -39 -1 -45 -40 -6 -37 -8 -40 -40 -40 l-33 0 -7 -61 c-4 -34 -7 -127 -6 -208 2 -236 8 -211 -50 -211 -49 0 -50 1 -50 29 0 57 -16 79 -67 93 -45 13 -48 16 -51 51 -3 34 -6 37 -33 37 -16 0 -29 4 -29 9 0 5 -14 11 -32 15 -23 5 -34 2 -41 -9 -5 -9 -23 -15 -47 -15 l-40 0 0 -209 c0 -116 -3 -212 -7 -214 -5 -2 -20 -7 -35 -11 l-28 -6 0 115 c0 98 -3 120 -22 156 -17 33 -23 38 -30 25 -6 -10 -23 -16 -48 -16 l-40 0 0 59 c0 89 -2 91 -77 91 -46 0 -69 5 -81 16 -13 13 -29 15 -79 11 -35 -4 -68 -9 -73 -12 -6 -4 -10 -70 -10 -154 l0 -147 -35 4 c-30 4 -35 1 -35 -16 0 -15 -8 -22 -27 -24 -27 -3 -28 -6 -31 -60 -2 -41 -7 -58 -17 -58 -20 0 -26 44 -24 171 1 80 -3 131 -15 172 -23 84 -31 94 -73 100 -57 9 -81 -1 -95 -39 -17 -47 -28 -42 -28 11 0 25 -4 45 -10 45 -6 0 -10 36 -10 88 0 90 -8 112 -41 112 -13 0 -19 9 -21 32 -3 27 -8 33 -38 41 -19 5 -49 7 -67 4 -29 -5 -32 -3 -40 30 -10 42 -32 55 -40 24 -3 -12 -9 -21 -14 -21 -5 0 -18 -9 -29 -20 -18 -18 -20 -33 -20 -181 0 -157 0 -160 -20 -154 -12 4 -27 1 -35 -5 -10 -8 -34 -10 -75 -5 l-60 7 0 152 0 152 -48 47 c-46 45 -50 47 -104 47 l-57 0 -18 60 c-10 36 -24 62 -34 65 -13 5 -16 15 -13 48 5 48 -6 31 -27 -43 -7 -25 -18 -56 -25 -70 -18 -36 -34 -198 -34 -339 0 -67 -4 -121 -9 -121 -5 0 -11 71 -13 158 -4 147 -6 160 -31 206 -15 27 -30 72 -33 100 -6 38 -9 46 -15 31 -4 -11 -8 -33 -8 -48 -1 -15 -14 -54 -30 -86 -18 -34 -32 -83 -37 -119 -6 -60 -8 -62 -35 -62 -28 0 -29 -2 -29 -45 l0 -45 -50 0 c-27 0 -50 5 -50 10 0 6 -8 10 -19 10 -27 0 -31 25 -31 203 0 86 -3 157 -7 158 -89 9 -173 13 -173 7 0 -4 -24 -14 -54 -23 -39 -11 -55 -22 -59 -37 -3 -11 -4 -91 -3 -177 2 -86 1 -122 -1 -81 -2 43 -9 78 -16 82 -19 12 -118 8 -157 -6 -30 -11 -35 -18 -38 -49 -4 -43 -25 -49 -60 -17 -14 13 -35 20 -62 20 l-40 0 0 40 c0 35 -4 42 -27 51 -16 6 -40 8 -55 5 l-27 -5 -3 92 -3 92 -100 0 -100 0 -3 -272 c-1 -187 -6 -273 -13 -273 -6 0 -13 9 -16 19 -3 11 -13 21 -24 24 -17 5 -19 15 -19 121 0 96 -3 116 -15 116 -13 0 -15 27 -15 184 0 179 -7 222 -31 185 -6 -10 -9 -11 -9 -1 0 7 -15 12 -39 12 -22 0 -43 5 -47 12 -15 24 -34 -26 -34 -89 0 -52 -3 -64 -20 -73 -19 -10 -20 -21 -20 -223 0 -141 -4 -207 -10 -197 -5 8 -10 29 -10 46 0 24 -5 33 -22 38 -32 8 -91 7 -105 -2 -7 -5 -14 -44 -17 -101 -3 -51 -7 -95 -9 -97 -2 -2 -10 7 -17 21 -15 27 -50 34 -50 10 0 -8 -9 -15 -20 -15 -18 0 -20 -7 -21 -62 0 -35 -4 -72 -8 -83 -17 -41 -23 83 -27 530 -4 379 -7 451 -19 458 -8 4 -15 14 -15 21 0 8 -13 16 -30 20 l-30 6 0 135 c0 83 -4 135 -10 135 -6 0 -10 -51 -10 -134z m1217 -923 c-2 -21 -4 -4 -4 37 0 41 2 58 4 38 2 -21 2 -55 0 -75z m2150 -405 c-2 -24 -4 -7 -4 37 0 44 2 63 4 43 2 -21 2 -57 0 -80z"
       id="path2"
       style="fill:none;stroke:#000000;stroke-opacity:1;stroke-width:7.50000012;stroke-miterlimit:4;stroke-dasharray:none" />
  </g>
</svg>
